# xmcd CD database file
#
# Track frame offsets:
#	183
#	15208
#	29270
#	38650
#	54670
#	66815
#	81100
#	94165
#	110635
#	122913
#	134160
#	145798
#
# Disc length: 2121 seconds
#
# Revision: 1
# Processed by: cddbd v1.4PL0 Copyright (c) Steve Scherf et al.
# Submitted via: CDex 1.50beta9
#
DISCID=a208470c
DTITLE=Mick Flavin - Sweet Memory
DYEAR=1992
DGENRE=Country
TTITLE0=All I Can Be ( Is A Sweet Memory )
TTITLE1=If You're Gonna Do Me Wrong ( Do It Right )
TTITLE2=Gonna Have Love
TTITLE3=What She Don't Know Hurt Her
TTITLE4=Way Down Deep
TTITLE5=I Took A Memory To Linch
TTITLE6=The Old School Yard
TTITLE7=She's My Rose
TTITLE8=Haven't You Heard
TTITLE9=The Wine Flowed Freely
TTITLE10=Lady Jane 
TTITLE11=The Hills Of Tyrone
EXTD=YEAR: 1992
EXTT0=
EXTT1=
EXTT2=
EXTT3=
EXTT4=
EXTT5=
EXTT6=
EXTT7=
EXTT8=
EXTT9=
EXTT10=
EXTT11=
PLAYORDER=
